<svg width="36" height="38" viewBox="0 0 36 38" fill="none" xmlns="http://www.w3.org/2000/svg">
<path d="M35.5002 10.25C35.5002 12.9213 34.4602 15.4325 32.5714 17.3212L14.559 35.5475C13.094 37.0125 11.1702 37.745 9.2477 37.745C7.3277 37.745 5.4077 37.0138 3.94645 35.5525C1.0227 32.6275 1.0227 27.87 3.94645 24.9463L16.959 12.0075C18.9127 10.0662 22.0177 10.0025 23.884 11.8663C24.7952 12.7775 25.2752 14.0075 25.2365 15.3312C25.1977 16.6262 24.664 17.8538 23.7327 18.785L11.384 31.1338C10.8952 31.6225 10.1052 31.6225 9.61645 31.1338C9.1277 30.645 9.1277 29.855 9.61645 29.3662L21.9652 17.0175C22.444 16.5387 22.719 15.9137 22.7377 15.2575C22.7565 14.63 22.5352 14.0525 22.1165 13.6337C21.2227 12.7437 19.7002 12.8075 18.7227 13.78L5.71145 26.7163C3.7652 28.6637 3.7652 31.8362 5.71395 33.785C7.66395 35.7337 10.8352 35.7337 12.7852 33.785L30.7977 15.5588C32.2202 14.1362 33.0002 12.2537 33.0002 10.25C33.0002 8.24625 32.2202 6.36375 30.804 4.9475C29.3865 3.53 27.504 2.75 25.5002 2.75C23.4965 2.75 21.614 3.53 20.1965 4.9475L2.63145 22.3875C2.1402 22.8737 1.3502 22.8713 0.863953 22.38C0.377703 21.89 0.380203 21.1 0.870203 20.6125L18.4327 3.17625C20.3177 1.29 22.829 0.25 25.5002 0.25C28.1715 0.25 30.6827 1.29 32.5714 3.18C34.4602 5.0675 35.5002 7.57875 35.5002 10.25Z" fill="black"/>
</svg>
