<svg width="12" height="12" viewBox="0 0 12 12" fill="none" xmlns="http://www.w3.org/2000/svg">
<path opacity="0.25" fill-rule="evenodd" clip-rule="evenodd" d="M6 0C2.68852 0 0 2.68852 0 6C0 9.31148 2.68852 12 6 12C9.31148 12 12 9.31148 12 6C12 2.68852 9.31148 0 6 0ZM7.10156 6.31533C7.10156 5.70696 6.60839 5.21381 6.00005 5.21381H6C5.70785 5.21381 5.42766 5.32985 5.22108 5.53645C5.0145 5.74303 4.89844 6.0232 4.89844 6.31537V8.66051C4.89844 8.95266 5.0145 9.23285 5.22108 9.43943C5.42766 9.64601 5.70785 9.76207 6 9.76207H6.00005C6.60839 9.76207 7.10156 9.2689 7.10156 8.66055V6.31533ZM6 2.23793C5.39203 2.23793 4.89844 2.73152 4.89844 3.33949C4.89844 3.94746 5.39203 4.44105 6 4.44105C6.60797 4.44105 7.10156 3.94746 7.10156 3.33949C7.10156 2.73152 6.60797 2.23793 6 2.23793Z" fill="black"/>
</svg>
